<?xml version="1.0" standalone="no"?><!DOCTYPE svg PUBLIC "-//W3C//DTD SVG 1.1//EN" "http://www.w3.org/Graphics/SVG/1.1/DTD/svg11.dtd"><svg t="1776765004149" class="icon" viewBox="0 0 1024 1024" version="1.1" xmlns="http://www.w3.org/2000/svg" p-id="2919" xmlns:xlink="http://www.w3.org/1999/xlink" width="256" height="256"><path d="M366.246957 498.910609C305.252174 446.285913 267.097043 371.311304 267.097043 288.144696 267.097043 129.024 406.628174 0 578.749217 0s311.652174 129.024 311.652174 288.144696c0 83.21113-38.15513 158.141217-99.149913 210.765913L578.749217 747.965217l-212.50226-249.054608zM594.331826 405.147826a109.078261 109.078261 0 1 0 0-218.156522 109.078261 109.078261 0 0 0 0 218.156522z" fill="#4b5563" p-id="2920"></path><path d="M400.662261 623.304348v89.043478H244.836174a22.26087 22.26087 0 1 0 0 44.566261h527.582609a117.982609 117.982609 0 1 1 0 236.054261H645.531826v-89.043478h126.886957a28.93913 28.93913 0 1 0 0-57.967305H244.836174A111.304348 111.304348 0 0 1 244.836174 623.304348H400.662261z" fill="#4b5563" p-id="2921"></path></svg>