<?xml version="1.0" standalone="no"?><!DOCTYPE svg PUBLIC "-//W3C//DTD SVG 1.1//EN" "http://www.w3.org/Graphics/SVG/1.1/DTD/svg11.dtd"><svg t="1776764343744" class="icon" viewBox="0 0 1024 1024" version="1.1" xmlns="http://www.w3.org/2000/svg" p-id="2545" xmlns:xlink="http://www.w3.org/1999/xlink" width="256" height="256"><path d="M890.53893 559.569946c2.114575-16.294021 3.482653-32.587042 3.482653-49.999309 0-17.288351-1.61691-33.582371-3.482653-49.999309l107.461589-84.078346c9.701463-7.587887 12.313703-21.393584 6.094893-32.588041l-101.864361-176.241244c-6.094893-11.192458-19.90059-15.297692-31.094048-11.192458l-126.864515 50.993639c-26.492149-20.397256-55.098873-37.187942-86.068005-49.999309L638.801558 21.392585C637.185646 9.079882 626.612771 0 613.802403 0H409.948765c-12.686452 0-23.384243 9.203798-25.000154 21.392585l-19.402926 135.072984c-31.094048 12.686452-59.575856 30.099718-86.068005 49.999309l-126.864515-50.994638c-11.815039-4.601899-24.999155 0-31.094048 11.194457L19.655755 342.90594c-6.715475 11.193458-3.481654 24.999155 6.094893 32.587042l107.46159 84.078346c-2.114575 16.293021-3.482653 33.083707-3.482653 49.999309 0 16.914602 1.61691 33.581372 3.482653 49.999309L25.626732 643.648292C15.92427 651.235179 13.313029 665.040877 19.531839 676.234334l101.864361 176.241244c6.093894 11.194457 19.90059 15.298691 31.094048 11.194457l126.864515-50.995638c26.492149 20.398255 55.097874 37.18994 86.068005 50.000309l19.401926 135.072984c1.61691 12.188787 12.189786 21.392585 25.000154 21.392585h203.852639c12.686452 0 23.383244-9.203798 25.000154-21.392585l19.401926-135.072984c31.094048-12.686452 59.576855-30.099718 86.069005-49.99931l126.864515 50.994639c11.815039 4.601899 24.999155 0 31.093049-11.194457L1003.970496 676.234334c6.094893-11.193458 3.482653-24.999155-6.093893-32.586042l-107.337673-84.078346zM511.938042 688.050372c-98.381708 0-178.355819-79.974111-178.355819-178.355819s79.974111-178.355819 178.355819-178.355818S690.293861 411.312846 690.293861 509.694553s-79.974111 178.355819-178.355819 178.355819z m0 0" p-id="2546" fill="#4b5563"></path></svg>