<?xml version="1.0" standalone="no"?><!DOCTYPE svg PUBLIC "-//W3C//DTD SVG 1.1//EN" "http://www.w3.org/Graphics/SVG/1.1/DTD/svg11.dtd"><svg t="1776765088471" class="icon" viewBox="0 0 1024 1024" version="1.1" xmlns="http://www.w3.org/2000/svg" p-id="7448" xmlns:xlink="http://www.w3.org/1999/xlink" width="256" height="256"><path d="M930.91 651.636h-46.546V512h46.545c27.927 0 46.546-18.618 46.546-46.545s-18.619-46.546-46.546-46.546h-46.545V228.073l-69.819-88.437-69.818 88.437v190.836H605.091V307.2L512 232.727 418.91 307.2v111.71H279.272V228.072l-69.818-88.437-69.819 88.437v190.836H93.091c-27.927 0-46.546 18.618-46.546 46.546S65.164 512 93.091 512h46.545v139.636H93.091c-27.927 0-46.546 18.619-46.546 46.546s18.619 46.545 46.546 46.545h46.545v93.091c0 27.927 18.619 46.546 46.546 46.546h46.545c27.928 0 46.546-18.619 46.546-46.546v-93.09h139.636v93.09c0 27.927 23.273 46.546 46.546 46.546h93.09c27.928 0 46.546-18.619 46.546-46.546v-93.09h139.636v93.09c0 27.927 18.618 46.546 46.546 46.546h46.545c27.927 0 46.546-18.619 46.546-46.546v-93.09h46.545c27.927 0 46.546-18.619 46.546-46.546s-18.619-46.546-46.546-46.546z m-651.637 0V512h139.636v139.636H279.273z m325.818 0V512h139.636v139.636H605.091z" fill="#4b5563" p-id="7449"></path></svg>